<svg xmlns="http://www.w3.org/2000/svg" xmlns:xlink="http://www.w3.org/1999/xlink" width="500" zoomAndPan="magnify" viewBox="0 0 375 374.999991" height="500" preserveAspectRatio="xMidYMid meet" version="1.0"><defs><g/><clipPath id="dfe0390100"><path d="M 122.53125 112.5 L 252.28125 112.5 L 252.28125 262.5 L 122.53125 262.5 Z M 122.53125 112.5 " clip-rule="nonzero"/></clipPath></defs><g clip-path="url(#dfe0390100)"><path fill="#b39a09" d="M 127.042969 152.609375 L 187.40625 117.71875 L 247.769531 152.609375 L 247.769531 222.390625 L 187.40625 257.308594 L 127.042969 222.390625 L 127.042969 152.609375 M 122.550781 150 L 122.550781 225 L 187.40625 262.5 L 252.261719 225 L 252.261719 150 L 187.40625 112.5 Z M 122.550781 150 " fill-opacity="1" fill-rule="nonzero"/></g><g fill="#b39a09" fill-opacity="1"><g transform="translate(150.386636, 205.46267)"><g><path d="M 30.0625 0 L 7.140625 0 C 6.273438 0 5.648438 -0.191406 5.265625 -0.578125 C 4.878906 -0.960938 4.6875 -1.585938 4.6875 -2.453125 L 4.6875 -46.53125 C 4.6875 -47.394531 4.878906 -48.019531 5.265625 -48.40625 C 5.648438 -48.789062 6.273438 -48.984375 7.140625 -48.984375 L 30.0625 -48.984375 C 35.738281 -48.984375 39.945312 -47.847656 42.6875 -45.578125 C 45.4375 -43.304688 46.8125 -39.816406 46.8125 -35.109375 L 46.8125 -13.875 C 46.8125 -9.15625 45.4375 -5.660156 42.6875 -3.390625 C 39.945312 -1.128906 35.738281 0 30.0625 0 Z M 20.140625 -35.984375 L 20.140625 -12.859375 L 28.234375 -12.859375 C 29.316406 -12.859375 30.117188 -13.128906 30.640625 -13.671875 C 31.171875 -14.210938 31.4375 -15.050781 31.4375 -16.1875 L 31.4375 -32.71875 C 31.4375 -33.851562 31.171875 -34.679688 30.640625 -35.203125 C 30.117188 -35.722656 29.316406 -35.984375 28.234375 -35.984375 Z M 20.140625 -35.984375 "/></g></g></g><g fill="#514901" fill-opacity="1"><g transform="translate(182.939682, 222.725821)"><g><path d="M 37.0625 0 L 20.5625 0 C 14.925781 0 10.742188 -1.125 8.015625 -3.375 C 5.285156 -5.632812 3.921875 -9.109375 3.921875 -13.796875 L 3.921875 -34.828125 C 3.921875 -39.515625 5.285156 -42.992188 8.015625 -45.265625 C 10.742188 -47.546875 14.925781 -48.6875 20.5625 -48.6875 L 37.0625 -48.6875 C 37.914062 -48.6875 38.535156 -48.492188 38.921875 -48.109375 C 39.304688 -47.734375 39.5 -47.113281 39.5 -46.25 L 39.5 -38.078125 C 39.5 -37.210938 39.304688 -36.585938 38.921875 -36.203125 C 38.535156 -35.828125 37.914062 -35.640625 37.0625 -35.640625 L 23.46875 -35.640625 C 22.070312 -35.640625 21.035156 -35.359375 20.359375 -34.796875 C 19.679688 -34.234375 19.34375 -33.382812 19.34375 -32.25 L 19.34375 -16.15625 C 19.34375 -15.03125 19.679688 -14.207031 20.359375 -13.6875 C 21.035156 -13.175781 22.070312 -12.921875 23.46875 -12.921875 L 37.0625 -12.921875 C 37.914062 -12.921875 38.535156 -12.726562 38.921875 -12.34375 C 39.304688 -11.957031 39.5 -11.335938 39.5 -10.484375 L 39.5 -2.4375 C 39.5 -1.582031 39.304688 -0.960938 38.921875 -0.578125 C 38.535156 -0.191406 37.914062 0 37.0625 0 Z M 37.0625 0 "/></g></g></g></svg>