<svg xmlns="http://www.w3.org/2000/svg" xmlns:xlink="http://www.w3.org/1999/xlink" width="500" zoomAndPan="magnify" viewBox="0 0 375 374.999991" height="500" preserveAspectRatio="xMidYMid meet" version="1.0"><defs><g/><clipPath id="f2ac427a67"><path d="M 180.351562 169.6875 L 330.351562 169.6875 L 330.351562 205.6875 L 180.351562 205.6875 Z M 180.351562 169.6875 " clip-rule="nonzero"/></clipPath></defs><g clip-path="url(#f2ac427a67)"><path fill="#cfbb02" d="M 329.519531 170.554688 L 329.519531 204.785156 L 181.183594 204.785156 L 181.183594 170.554688 L 329.519531 170.554688 M 330.351562 169.714844 L 180.351562 169.714844 L 180.351562 205.625 L 330.351562 205.625 Z M 330.351562 169.714844 " fill-opacity="1" fill-rule="nonzero"/></g><g fill="#514901" fill-opacity="1"><g transform="translate(70.573176, 197.074909)"><g><path d="M 19.171875 -1.625 C 18.378906 -0.988281 17.34375 -0.519531 16.0625 -0.21875 C 14.78125 0.0703125 13.359375 0.21875 11.796875 0.21875 C 11.035156 0.21875 9.929688 0.203125 8.484375 0.171875 C 7.046875 0.148438 5.242188 0.117188 3.078125 0.078125 L 2.8125 -0.1875 L 2.8125 -25.09375 L 3.078125 -25.34375 C 4.503906 -25.394531 5.988281 -25.429688 7.53125 -25.453125 C 9.070312 -25.484375 10.691406 -25.5 12.390625 -25.5 C 14.492188 -25.5 16.25 -25.164062 17.65625 -24.5 C 19.0625 -23.832031 20.179688 -22.914062 21.015625 -21.75 C 21.859375 -20.59375 22.453125 -19.226562 22.796875 -17.65625 C 23.140625 -16.09375 23.3125 -14.410156 23.3125 -12.609375 C 23.3125 -10.148438 23.023438 -8.019531 22.453125 -6.21875 C 21.890625 -4.414062 20.796875 -2.882812 19.171875 -1.625 Z M 12.359375 -4.40625 C 15.609375 -4.40625 17.234375 -7.140625 17.234375 -12.609375 C 17.234375 -18.117188 15.609375 -20.875 12.359375 -20.875 C 11.566406 -20.875 10.867188 -20.875 10.265625 -20.875 C 9.660156 -20.875 9.132812 -20.882812 8.6875 -20.90625 L 8.6875 -4.359375 C 9.132812 -4.390625 9.660156 -4.40625 10.265625 -4.40625 C 10.867188 -4.40625 11.566406 -4.40625 12.359375 -4.40625 Z M 12.359375 -4.40625 "/></g></g></g><g fill="#514901" fill-opacity="1"><g transform="translate(98.209557, 197.074909)"><g><path d="M 16.6875 -15.46875 L 16.65625 -18.203125 L 16.65625 -25.265625 C 17.414062 -25.421875 18.40625 -25.5 19.625 -25.5 C 20.84375 -25.5 21.820312 -25.421875 22.5625 -25.265625 L 22.5625 0 C 21.78125 0.144531 20.796875 0.21875 19.609375 0.21875 C 18.421875 0.21875 17.4375 0.144531 16.65625 0 L 16.65625 -7.84375 L 16.6875 -10.578125 L 14.84375 -10.546875 L 10.546875 -10.546875 L 8.6875 -10.578125 L 8.734375 -7.84375 L 8.734375 0 C 7.960938 0.144531 6.972656 0.21875 5.765625 0.21875 C 4.554688 0.21875 3.570312 0.144531 2.8125 0 L 2.8125 -25.265625 C 3.570312 -25.421875 4.554688 -25.5 5.765625 -25.5 C 6.972656 -25.5 7.960938 -25.421875 8.734375 -25.265625 L 8.734375 -18.203125 L 8.6875 -15.46875 L 10.546875 -15.5 L 14.84375 -15.5 Z M 16.6875 -15.46875 "/></g></g></g><g fill="#514901" fill-opacity="1"><g transform="translate(126.548857, 197.074909)"><g><path d="M 8.953125 -5.296875 C 8.285156 -5.296875 7.789062 -5.304688 7.46875 -5.328125 L 5.890625 0.03125 C 5.296875 0.1875 4.46875 0.265625 3.40625 0.265625 C 2.21875 0.265625 1.253906 0.128906 0.515625 -0.140625 L 0.328125 -0.4375 L 8.46875 -25.265625 C 9.4375 -25.421875 10.5625 -25.5 11.84375 -25.5 C 13.289062 -25.5 14.445312 -25.410156 15.3125 -25.234375 L 23.3125 -0.375 C 22.445312 0.09375 21.472656 0.328125 20.390625 0.328125 C 19.109375 0.328125 18.207031 0.109375 17.6875 -0.328125 C 17.164062 -0.773438 16.722656 -1.628906 16.359375 -2.890625 L 15.65625 -5.328125 C 15.332031 -5.304688 14.847656 -5.296875 14.203125 -5.296875 Z M 8.84375 -9.953125 L 10.328125 -9.984375 L 13.03125 -9.984375 C 13.144531 -9.984375 13.359375 -9.976562 13.671875 -9.96875 C 13.984375 -9.957031 14.210938 -9.953125 14.359375 -9.953125 L 13.734375 -12.25 C 13.140625 -14.320312 12.457031 -16.863281 11.6875 -19.875 L 11.46875 -19.875 C 11.269531 -18.8125 10.675781 -16.453125 9.6875 -12.796875 Z M 8.84375 -9.953125 "/></g></g></g><g fill="#514901" fill-opacity="1"><g transform="translate(153.112344, 197.074909)"><g><path d="M 22.71875 -25.53125 L 22.984375 -25.265625 L 22.984375 -0.109375 C 21.992188 0.109375 20.828125 0.21875 19.484375 0.21875 C 18.140625 0.21875 16.945312 0.144531 15.90625 0 L 10.09375 -13.25 C 9.40625 -14.75 8.703125 -16.488281 7.984375 -18.46875 L 7.875 -18.421875 C 8.175781 -14.828125 8.328125 -11.140625 8.328125 -7.359375 L 8.328125 0 C 7.554688 0.144531 6.628906 0.21875 5.546875 0.21875 C 4.460938 0.21875 3.550781 0.144531 2.8125 0 L 2.8125 -25.15625 C 3.75 -25.382812 4.875 -25.5 6.1875 -25.5 C 7.507812 -25.5 8.691406 -25.421875 9.734375 -25.265625 L 15.46875 -12.0625 C 16.5 -9.625 17.265625 -7.75 17.765625 -6.4375 L 17.90625 -6.515625 C 17.613281 -9.941406 17.46875 -13.578125 17.46875 -17.421875 L 17.46875 -21.9375 C 17.46875 -23.21875 17.722656 -24.132812 18.234375 -24.6875 C 18.753906 -25.25 19.59375 -25.53125 20.75 -25.53125 Z M 22.71875 -25.53125 "/></g></g></g><g fill="#cfbb02" fill-opacity="1"><g transform="translate(182.112693, 198.375105)"><g><path d="M 15.15625 -14.390625 L 15.15625 -14.8125 C 15.15625 -18.257812 13.875 -19.984375 11.3125 -19.984375 C 9.832031 -19.984375 8.765625 -19.3125 8.109375 -17.96875 C 7.460938 -16.625 7.140625 -14.648438 7.140625 -12.046875 C 7.140625 -9.453125 7.546875 -7.523438 8.359375 -6.265625 C 9.179688 -5.003906 10.375 -4.375 11.9375 -4.375 C 12.75 -4.375 13.648438 -4.566406 14.640625 -4.953125 C 15.640625 -5.335938 16.722656 -5.953125 17.890625 -6.796875 C 18.472656 -6.390625 19.015625 -5.84375 19.515625 -5.15625 C 20.015625 -4.46875 20.320312 -3.8125 20.4375 -3.1875 C 19.90625 -2.675781 19.28125 -2.191406 18.5625 -1.734375 C 17.851562 -1.273438 17.082031 -0.878906 16.25 -0.546875 C 15.425781 -0.222656 14.5625 0.0351562 13.65625 0.234375 C 12.757812 0.429688 11.859375 0.53125 10.953125 0.53125 C 9.160156 0.53125 7.644531 0.1875 6.40625 -0.5 C 5.164062 -1.195312 4.164062 -2.113281 3.40625 -3.25 C 2.65625 -4.394531 2.109375 -5.710938 1.765625 -7.203125 C 1.429688 -8.703125 1.265625 -10.253906 1.265625 -11.859375 C 1.265625 -13.960938 1.523438 -15.800781 2.046875 -17.375 C 2.566406 -18.945312 3.273438 -20.257812 4.171875 -21.3125 C 5.078125 -22.363281 6.132812 -23.148438 7.34375 -23.671875 C 8.5625 -24.203125 9.859375 -24.46875 11.234375 -24.46875 C 12.628906 -24.46875 13.898438 -24.28125 15.046875 -23.90625 C 16.191406 -23.53125 17.164062 -23.015625 17.96875 -22.359375 C 18.78125 -21.710938 19.398438 -20.941406 19.828125 -20.046875 C 20.253906 -19.160156 20.46875 -18.207031 20.46875 -17.1875 C 20.46875 -15.101562 19.410156 -14.0625 17.296875 -14.0625 C 16.660156 -14.0625 15.945312 -14.171875 15.15625 -14.390625 Z M 15.15625 -14.390625 "/></g></g></g><g fill="#cfbb02" fill-opacity="1"><g transform="translate(206.922893, 198.375105)"><g><path d="M 7.84375 -6.515625 C 8.46875 -4.691406 9.738281 -3.78125 11.65625 -3.78125 C 12.613281 -3.78125 13.390625 -4.019531 13.984375 -4.5 C 14.578125 -4.976562 15.039062 -5.582031 15.375 -6.3125 C 15.71875 -7.050781 15.945312 -7.875 16.0625 -8.78125 C 16.175781 -9.695312 16.234375 -10.597656 16.234375 -11.484375 C 16.234375 -12.296875 16.203125 -13.203125 16.140625 -14.203125 C 16.085938 -15.210938 15.921875 -16.15625 15.640625 -17.03125 C 15.359375 -17.90625 14.914062 -18.640625 14.3125 -19.234375 C 13.707031 -19.828125 12.820312 -20.125 11.65625 -20.125 C 10.53125 -20.125 9.671875 -19.835938 9.078125 -19.265625 C 8.484375 -18.691406 8.039062 -17.984375 7.75 -17.140625 C 7.457031 -16.304688 7.273438 -15.414062 7.203125 -14.46875 C 7.140625 -13.53125 7.109375 -12.695312 7.109375 -11.96875 C 7.109375 -10.894531 7.160156 -9.9375 7.265625 -9.09375 C 7.367188 -8.257812 7.5625 -7.398438 7.84375 -6.515625 Z M 5 -1.6875 C 2.507812 -3.757812 1.265625 -7.175781 1.265625 -11.9375 C 1.265625 -13.988281 1.5 -15.789062 1.96875 -17.34375 C 2.445312 -18.894531 3.132812 -20.191406 4.03125 -21.234375 C 4.9375 -22.285156 6.03125 -23.082031 7.3125 -23.625 C 8.59375 -24.164062 10.039062 -24.4375 11.65625 -24.4375 C 13.257812 -24.4375 14.707031 -24.164062 16 -23.625 C 17.300781 -23.082031 18.398438 -22.28125 19.296875 -21.21875 C 20.203125 -20.164062 20.890625 -18.863281 21.359375 -17.3125 C 21.835938 -15.757812 22.078125 -13.96875 22.078125 -11.9375 C 22.078125 -9.90625 21.835938 -8.113281 21.359375 -6.5625 C 20.890625 -5.007812 20.203125 -3.707031 19.296875 -2.65625 C 18.398438 -1.601562 17.300781 -0.804688 16 -0.265625 C 14.707031 0.265625 13.257812 0.53125 11.65625 0.53125 C 9 0.53125 6.78125 -0.207031 5 -1.6875 Z M 5 -1.6875 "/></g></g></g><g fill="#cfbb02" fill-opacity="1"><g transform="translate(233.762634, 198.375105)"><g><path d="M 18.125 -1.546875 C 17.382812 -0.929688 16.40625 -0.484375 15.1875 -0.203125 C 13.976562 0.0664062 12.640625 0.203125 11.171875 0.203125 C 10.441406 0.203125 9.394531 0.191406 8.03125 0.171875 C 6.664062 0.148438 4.957031 0.113281 2.90625 0.0625 L 2.65625 -0.171875 L 2.65625 -23.734375 L 2.90625 -23.96875 C 4.257812 -24.019531 5.664062 -24.054688 7.125 -24.078125 C 8.582031 -24.097656 10.113281 -24.109375 11.71875 -24.109375 C 13.707031 -24.109375 15.363281 -23.789062 16.6875 -23.15625 C 18.019531 -22.53125 19.082031 -21.671875 19.875 -20.578125 C 20.664062 -19.484375 21.222656 -18.191406 21.546875 -16.703125 C 21.878906 -15.222656 22.046875 -13.632812 22.046875 -11.9375 C 22.046875 -9.601562 21.773438 -7.582031 21.234375 -5.875 C 20.703125 -4.175781 19.664062 -2.734375 18.125 -1.546875 Z M 11.6875 -4.171875 C 14.769531 -4.171875 16.3125 -6.757812 16.3125 -11.9375 C 16.3125 -17.132812 14.769531 -19.734375 11.6875 -19.734375 C 10.9375 -19.734375 10.273438 -19.734375 9.703125 -19.734375 C 9.140625 -19.734375 8.644531 -19.75 8.21875 -19.78125 L 8.21875 -4.125 C 8.644531 -4.15625 9.140625 -4.171875 9.703125 -4.171875 C 10.273438 -4.171875 10.9375 -4.171875 11.6875 -4.171875 Z M 11.6875 -4.171875 "/></g></g></g><g fill="#cfbb02" fill-opacity="1"><g transform="translate(260.602375, 198.375105)"><g><path d="M 2.734375 0 L 2.734375 -23.90625 C 3.453125 -24.039062 4.382812 -24.109375 5.53125 -24.109375 C 6.675781 -24.109375 7.617188 -24.039062 8.359375 -23.90625 L 8.359375 0 C 7.617188 0.132812 6.675781 0.203125 5.53125 0.203125 C 4.382812 0.203125 3.453125 0.132812 2.734375 0 Z M 2.734375 0 "/></g></g></g><g fill="#cfbb02" fill-opacity="1"><g transform="translate(275.194879, 198.375105)"><g><path d="M 21.484375 -24.15625 L 21.734375 -23.90625 L 21.734375 -0.109375 C 20.796875 0.0976562 19.691406 0.203125 18.421875 0.203125 C 17.148438 0.203125 16.023438 0.132812 15.046875 0 L 9.5625 -12.53125 C 8.90625 -13.957031 8.238281 -15.601562 7.5625 -17.46875 L 7.453125 -17.4375 C 7.734375 -14.019531 7.875 -10.53125 7.875 -6.96875 L 7.875 0 C 7.15625 0.132812 6.28125 0.203125 5.25 0.203125 C 4.21875 0.203125 3.351562 0.132812 2.65625 0 L 2.65625 -23.796875 C 3.539062 -24.003906 4.609375 -24.109375 5.859375 -24.109375 C 7.109375 -24.109375 8.222656 -24.039062 9.203125 -23.90625 L 14.625 -11.40625 C 15.601562 -9.09375 16.328125 -7.320312 16.796875 -6.09375 L 16.9375 -6.15625 C 16.65625 -9.40625 16.515625 -12.847656 16.515625 -16.484375 L 16.515625 -20.75 C 16.515625 -21.96875 16.757812 -22.835938 17.25 -23.359375 C 17.738281 -23.890625 18.535156 -24.15625 19.640625 -24.15625 Z M 21.484375 -24.15625 "/></g></g></g><g fill="#cfbb02" fill-opacity="1"><g transform="translate(303.049385, 198.375105)"><g><path d="M 11.90625 -13.578125 L 17.390625 -13.609375 C 19.867188 -13.609375 21.109375 -12.441406 21.109375 -10.109375 L 21.109375 -0.90625 C 18.097656 0.0507812 14.9375 0.53125 11.625 0.53125 C 9.9375 0.53125 8.445312 0.25 7.15625 -0.3125 C 5.863281 -0.875 4.78125 -1.679688 3.90625 -2.734375 C 3.03125 -3.785156 2.367188 -5.070312 1.921875 -6.59375 C 1.484375 -8.125 1.265625 -9.859375 1.265625 -11.796875 C 1.265625 -13.921875 1.570312 -15.769531 2.1875 -17.34375 C 2.800781 -18.914062 3.628906 -20.226562 4.671875 -21.28125 C 5.710938 -22.332031 6.910156 -23.117188 8.265625 -23.640625 C 9.617188 -24.171875 11.03125 -24.4375 12.5 -24.4375 C 15.53125 -24.4375 18.375 -23.59375 21.03125 -21.90625 C 21.007812 -21.53125 20.921875 -21.148438 20.765625 -20.765625 C 20.617188 -20.378906 20.429688 -20.003906 20.203125 -19.640625 C 19.984375 -19.285156 19.726562 -18.960938 19.4375 -18.671875 C 19.144531 -18.378906 18.847656 -18.128906 18.546875 -17.921875 C 16.609375 -19.179688 14.648438 -19.8125 12.671875 -19.8125 C 8.867188 -19.8125 6.96875 -17.148438 6.96875 -11.828125 C 6.96875 -6.535156 8.914062 -3.890625 12.8125 -3.890625 C 13.34375 -3.890625 13.859375 -3.910156 14.359375 -3.953125 C 14.867188 -4.003906 15.367188 -4.078125 15.859375 -4.171875 L 15.859375 -6.515625 C 15.859375 -7.046875 15.863281 -7.507812 15.875 -7.90625 C 15.882812 -8.300781 15.898438 -8.640625 15.921875 -8.921875 L 14.171875 -8.921875 C 13.171875 -8.921875 12.476562 -9.113281 12.09375 -9.5 C 11.707031 -9.882812 11.515625 -10.488281 11.515625 -11.3125 C 11.515625 -12.007812 11.644531 -12.765625 11.90625 -13.578125 Z M 11.90625 -13.578125 "/></g></g></g></svg>